<?xml version="1.0" standalone="no"?><!DOCTYPE svg PUBLIC "-//W3C//DTD SVG 1.1//EN" "http://www.w3.org/Graphics/SVG/1.1/DTD/svg11.dtd"><svg t="1547892528328" class="icon" style="" viewBox="0 0 1024 1024" version="1.1" xmlns="http://www.w3.org/2000/svg" p-id="2407" xmlns:xlink="http://www.w3.org/1999/xlink" width="200" height="200"><defs><style type="text/css"></style></defs><path d="M839.2 828.9l-83.9-112.2 58.1-43.8c29.4-22.2 41.7-58.8 33.7-91.2 5.5-23.4 1.5-48.5-13.5-68.5L618.9 227c-1.5-4.5-3.7-8.8-7.2-12.9-30.2-35.4-62.9-74.5-107.2-92.3-77.8-31.2-168.6-2.5-231.4 48.1-105.3 84.7-131.4 236.9-54.5 339.6l58.7 78.5c4.3 5.7 8.6 11.1 12.9 16 3.9 4.4 8.6 7 13.5 8.2l163.1 217.3c27.5 36.9 81.7 43.1 120.4 14l79-59.6c0.1 0.2 0.2 0.5 0.4 0.7l85.2 114c14.2 18.9 42 22.2 62 7.2 4.9-3.7 8.9-8.2 11.9-13.2 1-0.7 2.1-1.2 3.1-1.9 19.9-15.1 24.6-42.9 10.4-61.8z" fill="#F6B545" p-id="2408"></path><path d="M435.4 108.8c23.5 0 46.8 4 69.1 13 44.3 17.8 77 56.9 107.2 92.3 3.5 4 5.7 8.4 7.2 12.9l214.8 286.1c15 20 19.1 45.1 13.5 68.5 8 32.5-4.3 69.1-33.7 91.2l-58.1 43.8 83.9 112.2c14.2 19 9.5 46.7-10.4 61.8-1 0.8-2.1 1.3-3.1 1.9-3 4.9-7 9.4-11.9 13.2-8.4 6.4-18.3 9.4-28 9.4-13.1 0-25.8-5.7-34-16.6l-85.2-114c-0.2-0.2-0.2-0.4-0.4-0.7l-79 59.6c-16.4 12.4-35.6 18.4-54.3 18.4-25.5 0-50.2-11.1-66.1-32.3L303.7 612.2c-4.9-1.2-9.6-3.9-13.5-8.2-4.3-4.9-8.7-10.2-12.9-16l-58.7-78.5c-76.9-102.8-50.8-254.9 54.5-339.6 44.8-36.1 103.9-61.1 162.3-61.1m0-35.8c-63 0-130.3 25.1-184.8 69-121.1 97.4-148.3 271.9-60.7 389l58.7 78.5c5 6.7 10 12.9 14.9 18.3 5 5.7 10.9 10.3 17.4 13.8L438.2 851c22.1 29.6 56.7 46.6 94.7 46.6 27.1 0 54-9.1 75.9-25.6l50.2-37.9 64.1 85.8c14.8 19.7 37.6 31 62.7 31 17.7 0 35.3-5.9 49.5-16.7 6-4.5 11.3-9.8 15.9-15.7 34.9-27.1 42.5-76.7 16.7-111.2l-62.5-83.6 29.6-22.3c37.9-28.5 56.4-74.9 48.7-120 5.3-32.1-2.3-64.4-21.4-89.9L650.6 209.4c-2.9-6.7-6.8-13-11.6-18.6l-1.9-2.3c-31.7-37.2-67.6-79.3-119.2-100C492.1 78.2 464.4 73 435.4 73z" fill="#6B0A0C" p-id="2409"></path><path d="M813.5 672.9L587.2 843.5c-38.7 29.2-92.9 22.9-120.4-14L250.7 541.6c-71.9-96.1-48.2-237 52.7-313.1 100.8-76.1 242.2-59.7 314.2 36.4l216.1 287.9c27.5 36.9 18.4 90.9-20.2 120.1z" fill="#E2375C" p-id="2410"></path><path d="M813.5 633.1L587.2 803.7c-38.7 29.2-92.9 22.9-120.4-14L250.7 501.8c-71.9-96.1-48.2-237 52.7-313.1 100.8-76.1 242.2-59.7 314.2 36.4L833.7 513c27.5 36.9 18.4 90.9-20.2 120.1z" fill="#FF5A78" p-id="2411"></path><path d="M665.7 775.8c-1.3 2.8-1 6.2 0.9 8.7l85.2 114c14.2 18.9 42 22.2 62 7.2 19.9-15 24.6-42.8 10.4-61.8l-97-129.8-51.7 40.6-9.8 21.1z" fill="#E6995A" p-id="2412"></path><path d="M678.4 751c-3.7 2.8-4.5 8.2-1.7 11.9l90.1 120.6c14.2 18.9 42 22.2 62 7.2 19.9-15 24.6-42.8 10.4-61.8l-90.1-120.5c-2.8-3.8-8.1-4.6-11.9-1.7L678.4 751z" fill="#FCC79F" p-id="2413"></path><path d="M537.6 274l-20.7 15.6c-10.3 7.8-12.8 22.3-5.4 32.1l211.1 281.2c7.4 9.9 21.9 11.5 32.2 3.7l20.7-15.6c10.4-7.8 12.8-22.3 5.4-32.1L569.8 277.7c-7.4-9.9-21.8-11.5-32.2-3.7zM439 348.3L418.3 364c-10.3 7.8-12.8 22.2-5.4 32.1L624 677.3c7.4 9.8 21.8 11.5 32.2 3.7l20.7-15.6c10.4-7.8 12.8-22.2 5.4-32.1L471.2 352.1c-7.4-9.9-21.9-11.6-32.2-3.8zM340.4 422.7l-20.7 15.6c-10.3 7.8-12.8 22.2-5.4 32.1l211.2 281.2c7.4 9.9 21.9 11.5 32.2 3.8l20.7-15.6c10.3-7.8 12.8-22.2 5.4-32.1L372.6 426.4c-7.4-9.8-21.9-11.5-32.2-3.7z" fill="#E2375C" p-id="2414"></path><path d="M340.1 635.1c1.1 0.1 2.1 0.1 3.2 0.2-1.1-0.1-2.1-0.1-3.2-0.2zM328.3 632.5c1.1 0.4 2.3 0.7 3.4 1-1.1-0.3-2.3-0.6-3.4-1z" fill="#FFB657" p-id="2415"></path><path d="M324.2 513.3c-7.7-30-4.7-65.7 7.3-94.2 9-21.2 26-37.9 50-38.6 28.2-0.9 51.4 19.6 79.1 21.6 16.6 1.2 26.5-7.7 24-24.4-2.6-18-11.7-35-18.6-51.6-6.8-16.3-15.5-34.6-9.4-52.5 4.8-14.1 17.9-27.4 33-29.4 29.2-3.9 55.9 21.5 82.5 29.7 0.5 0.1 0.9 0.3 1.4 0.4 35.2 10.5 62.1-32.2 38.2-60.2-30.2-35.4-62.9-74.5-107.2-92.3-77.8-31.2-168.6-2.5-231.4 48.1-105.3 84.7-131.4 236.9-54.5 339.6l58.7 78.5c4.3 5.7 8.6 11.1 12.9 16 16.7 18.7 47.5 6.5 46.9-18.6-0.6-23.9-6.9-49-12.9-72.1z" fill="#FFE27A" p-id="2416"></path><path d="M435.4 108.8c23.5 0 46.8 4 69.1 13 44.3 17.8 77 56.9 107.2 92.3 21.4 25 2.1 61.8-27.4 61.8-3.5 0-7.1-0.5-10.8-1.6-0.5-0.1-0.9-0.3-1.4-0.4-24.7-7.6-49.5-30.1-76.3-30.1-2 0-4.1 0.1-6.2 0.4-15.1 2-28.2 15.3-33 29.4-6.1 17.9 2.6 36.1 9.4 52.5 6.9 16.6 16 33.6 18.6 51.6 2.3 15.8-6.3 24.5-21.1 24.5-0.9 0-1.9 0-2.9-0.1-27.1-1.9-50-21.6-77.4-21.6h-1.7c-24 0.7-41 17.4-50 38.6-12 28.5-15.1 64.2-7.3 94.2 5.9 23.1 12.3 48.2 12.9 72.1 0.4 16.7-13.1 27.7-27 27.7-7.1 0-14.2-2.8-19.8-9.1-4.3-4.9-8.7-10.2-12.9-16l-58.7-78.5c-76.9-102.8-50.8-254.9 54.5-339.6 44.7-36.1 103.7-61.1 162.2-61.1m0-35.8c-63 0-130.3 25.1-184.8 69-121.1 97.4-148.3 271.9-60.7 389l58.7 78.5c5 6.7 10 12.9 14.9 18.3 12.1 13.6 28.7 21.1 46.6 21.1 16.9 0 33.4-6.9 45.2-19 11.8-12.1 18.1-28.2 17.6-45.4-0.7-28.5-8.1-57.1-14-80.1-5.7-22.2-3.6-49.6 5.6-71.3 2.6-6.1 8.4-16.5 18.1-16.8h0.6c7.3 0 16.4 3.8 27 8.1 13.7 5.7 29.2 12.1 47.9 13.4 1.8 0.1 3.7 0.2 5.4 0.2 18 0 33.7-6.7 44.3-19 10.5-12.2 14.9-28.8 12.3-46.6-2.8-18.8-10-35.2-16.5-49.7-1.6-3.5-3.1-7-4.5-10.4l-1.5-3.5c-3.1-7.4-8.4-19.8-7.1-23.6 0.8-2.4 3.1-4.8 4.4-5.5h0.9c7.4 0 19.2 6.4 30.5 12.5 11 5.9 22.3 12.1 35.2 16l1.7 0.5c6.9 2.1 14 3.1 21.1 3.1 27.8 0 53.5-16.7 65.4-42.7 12.1-26.2 8-56.2-10.8-78.3l-1.9-2.3c-31.7-37.2-67.6-79.3-119.2-100C492.1 78.2 464.4 73 435.4 73z" fill="#6B0A0C" p-id="2417"></path><path d="M346.2 635.2c1-0.1 2.1-0.1 3.1-0.2-1 0-2.1 0.1-3.1 0.2zM334.2 634.2l3.3 0.6c-1.2-0.2-2.3-0.4-3.3-0.6zM702.6 347c-0.1-0.1-0.1-0.3-0.2-0.5 0.1 0.2 0.1 0.3 0.2 0.5zM355.4 633.8c-1 0.3-2 0.4-3 0.6l3-0.6zM361.6 631.8c-0.9 0.4-1.8 0.6-2.7 0.9l2.7-0.9zM367.9 628.8c-0.8 0.4-1.5 0.7-2.2 1.1 0.7-0.4 1.4-0.7 2.2-1.1z" fill="#FFB657" p-id="2418"></path><path d="M296.2 191.9c-25.1 14.3-51.7 52.6-59.2 64.7-17.8 28.6-31.6 61.7-32.9 95.8-0.6 17.1 2.5 34.4 9.7 49.9 6.3 13.5 19 33.5 35.4 35.3 15.2 1.6 23.2-14.3 28.1-26.1 3.8-9.2 6.4-18.9 8.9-28.5 4.4-16.9 8.1-34.3 15.6-50.2 0.2-0.5 0.5-1 0.7-1.5 11.4-22.3 26.6-44.2 34.9-68.4 5.6-16.5 6.3-35.7 0.9-52.4-6.1-19.1-23.9-28.9-42.1-18.6z" fill="#FFFFFF" p-id="2419"></path></svg>